<mxfile host="app.diagrams.net" modified="2024-04-14T14:23:47.610Z" agent="Mozilla/5.0 (X11; Ubuntu; Linux x86_64; rv:122.0) Gecko/20100101 Firefox/122.0" etag="OM6Fau9j7k4AEdtT4Tf1" version="24.2.0" type="device">
  <diagram name="Page-1" id="V1GQ2DpsgTGS0O_ZDFrl">
    <mxGraphModel dx="1434" dy="741" grid="1" gridSize="10" guides="1" tooltips="1" connect="1" arrows="1" fold="1" page="1" pageScale="1" pageWidth="850" pageHeight="1100" math="0" shadow="0">
      <root>
        <mxCell id="0" />
        <mxCell id="1" parent="0" />
        <mxCell id="3kwyfGggynK8WJKLNXQP-1" value="args[0]" style="rounded=0;whiteSpace=wrap;html=1;fillColor=#dae8fc;strokeColor=#6c8ebf;" vertex="1" parent="1">
          <mxGeometry x="270" y="113" width="180" height="40" as="geometry" />
        </mxCell>
        <mxCell id="3kwyfGggynK8WJKLNXQP-2" value="args[1]" style="rounded=0;whiteSpace=wrap;html=1;fillColor=#dae8fc;strokeColor=#6c8ebf;" vertex="1" parent="1">
          <mxGeometry x="270" y="153" width="180" height="40" as="geometry" />
        </mxCell>
        <mxCell id="3kwyfGggynK8WJKLNXQP-3" value="args[2]" style="rounded=0;whiteSpace=wrap;html=1;fillColor=#dae8fc;strokeColor=#6c8ebf;" vertex="1" parent="1">
          <mxGeometry x="270" y="193" width="180" height="40" as="geometry" />
        </mxCell>
        <mxCell id="3kwyfGggynK8WJKLNXQP-4" value="args[3]" style="rounded=0;whiteSpace=wrap;html=1;fillColor=#dae8fc;strokeColor=#6c8ebf;" vertex="1" parent="1">
          <mxGeometry x="270" y="233" width="180" height="40" as="geometry" />
        </mxCell>
        <mxCell id="3kwyfGggynK8WJKLNXQP-5" value="&lt;b&gt;factorize &lt;/b&gt;stackframe" style="rounded=0;whiteSpace=wrap;html=1;fillColor=#fff2cc;strokeColor=#d6b656;" vertex="1" parent="1">
          <mxGeometry x="270" y="273" width="180" height="100" as="geometry" />
        </mxCell>
        <mxCell id="3kwyfGggynK8WJKLNXQP-6" value="Saved &lt;b&gt;rbx&lt;/b&gt;" style="rounded=0;whiteSpace=wrap;html=1;fillColor=#d5e8d4;strokeColor=#82b366;" vertex="1" parent="1">
          <mxGeometry x="270" y="373" width="180" height="40" as="geometry" />
        </mxCell>
        <mxCell id="3kwyfGggynK8WJKLNXQP-7" value="Saved &lt;b&gt;rip&lt;/b&gt;" style="rounded=0;whiteSpace=wrap;html=1;fillColor=#d5e8d4;strokeColor=#82b366;" vertex="1" parent="1">
          <mxGeometry x="270" y="453" width="180" height="40" as="geometry" />
        </mxCell>
        <mxCell id="3kwyfGggynK8WJKLNXQP-8" value="&lt;b&gt;main&lt;/b&gt; stackframe" style="rounded=0;whiteSpace=wrap;html=1;fillColor=#fff2cc;strokeColor=#d6b656;" vertex="1" parent="1">
          <mxGeometry x="270" y="493" width="180" height="90" as="geometry" />
        </mxCell>
        <mxCell id="3kwyfGggynK8WJKLNXQP-9" value="" style="endArrow=classic;html=1;rounded=0;dashed=1;" edge="1" parent="1">
          <mxGeometry width="50" height="50" relative="1" as="geometry">
            <mxPoint x="480" y="113" as="sourcePoint" />
            <mxPoint x="480" y="580" as="targetPoint" />
          </mxGeometry>
        </mxCell>
        <mxCell id="3kwyfGggynK8WJKLNXQP-13" value="Higher addresses" style="edgeLabel;html=1;align=center;verticalAlign=middle;resizable=0;points=[];" vertex="1" connectable="0" parent="3kwyfGggynK8WJKLNXQP-9">
          <mxGeometry x="-0.2233" y="4" relative="1" as="geometry">
            <mxPoint x="58" y="43" as="offset" />
          </mxGeometry>
        </mxCell>
        <mxCell id="3kwyfGggynK8WJKLNXQP-10" value="&lt;b&gt;rbp&lt;/b&gt;" style="text;html=1;align=center;verticalAlign=middle;whiteSpace=wrap;rounded=0;" vertex="1" parent="1">
          <mxGeometry x="210" y="360" width="60" height="30" as="geometry" />
        </mxCell>
        <mxCell id="3kwyfGggynK8WJKLNXQP-11" value="&lt;b&gt;rbx &lt;/b&gt;(initial &lt;b&gt;rsp)&lt;/b&gt;" style="text;html=1;align=center;verticalAlign=middle;whiteSpace=wrap;rounded=0;" vertex="1" parent="1">
          <mxGeometry x="170" y="260" width="90" height="30" as="geometry" />
        </mxCell>
        <mxCell id="3kwyfGggynK8WJKLNXQP-12" value="&lt;b&gt;args&lt;/b&gt;" style="text;html=1;align=center;verticalAlign=middle;whiteSpace=wrap;rounded=0;" vertex="1" parent="1">
          <mxGeometry x="200" y="100" width="60" height="30" as="geometry" />
        </mxCell>
        <mxCell id="3kwyfGggynK8WJKLNXQP-15" value="Saved &lt;b&gt;rbp&lt;/b&gt;" style="rounded=0;whiteSpace=wrap;html=1;fillColor=#d5e8d4;strokeColor=#82b366;" vertex="1" parent="1">
          <mxGeometry x="270" y="413" width="180" height="40" as="geometry" />
        </mxCell>
      </root>
    </mxGraphModel>
  </diagram>
</mxfile>
